G75*
%MOIN*%
%OFA0B0*%
%FSLAX25Y25*%
%IPPOS*%
%LPD*%
%AMOC8*
5,1,8,0,0,1.08239X$1,22.5*
%
%ADD10R,0.06706X0.05918*%
%ADD11R,0.05918X0.06706*%
%ADD12R,0.05524X0.03162*%
%ADD13C,0.08674*%
%ADD14R,0.07887X0.07887*%
%ADD15C,0.03778*%
D10*
X0103501Y0015749D03*
X0128501Y0015749D03*
X0128501Y0023229D03*
X0103501Y0023229D03*
X0153501Y0023229D03*
X0178501Y0023229D03*
X0178501Y0015749D03*
X0153501Y0015749D03*
X0153501Y0057560D03*
X0178501Y0057560D03*
X0178501Y0065040D03*
X0153501Y0065040D03*
X0128501Y0065040D03*
X0103501Y0065040D03*
X0103501Y0057560D03*
X0128501Y0057560D03*
D11*
X0208698Y0041300D03*
X0216179Y0041300D03*
X0216179Y0021300D03*
X0208698Y0021300D03*
X0239761Y0021300D03*
X0247242Y0021300D03*
D12*
X0219706Y0053623D03*
X0209423Y0053623D03*
X0209423Y0057363D03*
X0209423Y0061103D03*
X0219706Y0061103D03*
D13*
X0274663Y0061383D03*
X0274663Y0041383D03*
X0274663Y0021383D03*
D14*
X0057556Y0020985D03*
X0057556Y0060355D03*
D15*
X0089053Y0052481D03*
X0182438Y0046300D03*
X0193501Y0046300D03*
X0234722Y0052481D03*
X0254407Y0052481D03*
X0289840Y0052481D03*
X0289840Y0060355D03*
X0254407Y0040670D03*
X0227438Y0031300D03*
X0189564Y0031300D03*
X0254407Y0013111D03*
X0195352Y0009174D03*
X0089053Y0017048D03*
X0195352Y0064292D03*
M02*
