G75*
%MOIN*%
%OFA0B0*%
%FSLAX25Y25*%
%IPPOS*%
%LPD*%
%AMOC8*
5,1,8,0,0,1.08239X$1,22.5*
%
%ADD10C,0.07874*%
%ADD11R,0.07087X0.07087*%
%ADD12C,0.02978*%
%ADD13C,0.00600*%
D10*
X0274663Y0021383D03*
X0274663Y0041383D03*
X0274663Y0061383D03*
D11*
X0057556Y0060355D03*
X0057556Y0020985D03*
D12*
X0089053Y0017048D03*
X0189564Y0031300D03*
X0227438Y0031300D03*
X0254407Y0040670D03*
X0254407Y0052481D03*
X0234722Y0052481D03*
X0193501Y0046300D03*
X0182438Y0046300D03*
X0195352Y0064292D03*
X0289840Y0060355D03*
X0289840Y0052481D03*
X0254407Y0013111D03*
X0195352Y0009174D03*
X0089053Y0052481D03*
D13*
X0026723Y0075440D02*
X0026723Y0005900D01*
X0300988Y0005900D01*
X0300988Y0075440D01*
X0026723Y0075440D01*
X0026723Y0074917D02*
X0300988Y0074917D01*
X0300988Y0074318D02*
X0026723Y0074318D01*
X0026723Y0073720D02*
X0300988Y0073720D01*
X0300988Y0073121D02*
X0026723Y0073121D01*
X0026723Y0072523D02*
X0300988Y0072523D01*
X0300988Y0071924D02*
X0026723Y0071924D01*
X0026723Y0071326D02*
X0300988Y0071326D01*
X0300988Y0070727D02*
X0026723Y0070727D01*
X0026723Y0070129D02*
X0300988Y0070129D01*
X0300988Y0069530D02*
X0026723Y0069530D01*
X0026723Y0068932D02*
X0300988Y0068932D01*
X0300988Y0068333D02*
X0026723Y0068333D01*
X0026723Y0067735D02*
X0300988Y0067735D01*
X0300988Y0067136D02*
X0026723Y0067136D01*
X0026723Y0066538D02*
X0193653Y0066538D01*
X0193772Y0066656D02*
X0192987Y0065872D01*
X0192563Y0064847D01*
X0192563Y0063737D01*
X0192987Y0062712D01*
X0193772Y0061928D01*
X0194797Y0061503D01*
X0195907Y0061503D01*
X0196932Y0061928D01*
X0197716Y0062712D01*
X0198141Y0063737D01*
X0198141Y0064847D01*
X0197716Y0065872D01*
X0196932Y0066656D01*
X0195907Y0067081D01*
X0194797Y0067081D01*
X0193772Y0066656D01*
X0193055Y0065939D02*
X0026723Y0065939D01*
X0026723Y0065341D02*
X0192767Y0065341D01*
X0192563Y0064742D02*
X0062094Y0064742D01*
X0062400Y0064437D02*
X0061638Y0065198D01*
X0053475Y0065198D01*
X0052713Y0064437D01*
X0052713Y0056273D01*
X0053475Y0055512D01*
X0061638Y0055512D01*
X0062400Y0056273D01*
X0062400Y0064437D01*
X0062400Y0064144D02*
X0192563Y0064144D01*
X0192642Y0063545D02*
X0062400Y0063545D01*
X0062400Y0062947D02*
X0192890Y0062947D01*
X0193352Y0062348D02*
X0062400Y0062348D01*
X0062400Y0061750D02*
X0194202Y0061750D01*
X0196502Y0061750D02*
X0269426Y0061750D01*
X0269426Y0062348D02*
X0197352Y0062348D01*
X0197813Y0062947D02*
X0269642Y0062947D01*
X0269426Y0062425D02*
X0269426Y0060341D01*
X0270223Y0058417D01*
X0271696Y0056943D01*
X0273621Y0056146D01*
X0275704Y0056146D01*
X0277629Y0056943D01*
X0279102Y0058417D01*
X0279900Y0060341D01*
X0279900Y0062425D01*
X0279102Y0064350D01*
X0277629Y0065823D01*
X0275704Y0066620D01*
X0273621Y0066620D01*
X0271696Y0065823D01*
X0270223Y0064350D01*
X0269426Y0062425D01*
X0269426Y0061151D02*
X0062400Y0061151D01*
X0062400Y0060553D02*
X0269426Y0060553D01*
X0269586Y0059954D02*
X0062400Y0059954D01*
X0062400Y0059356D02*
X0269834Y0059356D01*
X0270082Y0058757D02*
X0062400Y0058757D01*
X0062400Y0058159D02*
X0270481Y0058159D01*
X0271080Y0057560D02*
X0062400Y0057560D01*
X0062400Y0056962D02*
X0271678Y0056962D01*
X0273097Y0056363D02*
X0062400Y0056363D01*
X0061891Y0055765D02*
X0300988Y0055765D01*
X0300988Y0056363D02*
X0276228Y0056363D01*
X0277648Y0056962D02*
X0300988Y0056962D01*
X0300988Y0057560D02*
X0278246Y0057560D01*
X0278845Y0058159D02*
X0300988Y0058159D01*
X0300988Y0058757D02*
X0279244Y0058757D01*
X0279491Y0059356D02*
X0300988Y0059356D01*
X0300988Y0059954D02*
X0279739Y0059954D01*
X0279900Y0060553D02*
X0300988Y0060553D01*
X0300988Y0061151D02*
X0279900Y0061151D01*
X0279900Y0061750D02*
X0300988Y0061750D01*
X0300988Y0062348D02*
X0279900Y0062348D01*
X0279684Y0062947D02*
X0300988Y0062947D01*
X0300988Y0063545D02*
X0279436Y0063545D01*
X0279188Y0064144D02*
X0300988Y0064144D01*
X0300988Y0064742D02*
X0278710Y0064742D01*
X0278111Y0065341D02*
X0300988Y0065341D01*
X0300988Y0065939D02*
X0277348Y0065939D01*
X0275903Y0066538D02*
X0300988Y0066538D01*
X0273422Y0066538D02*
X0197050Y0066538D01*
X0197649Y0065939D02*
X0271977Y0065939D01*
X0271214Y0065341D02*
X0197936Y0065341D01*
X0198141Y0064742D02*
X0270616Y0064742D01*
X0270138Y0064144D02*
X0198141Y0064144D01*
X0198061Y0063545D02*
X0269890Y0063545D01*
X0256771Y0054061D02*
X0255987Y0054845D01*
X0254962Y0055270D01*
X0253852Y0055270D01*
X0252827Y0054845D01*
X0252042Y0054061D01*
X0251618Y0053036D01*
X0251618Y0051926D01*
X0252042Y0050901D01*
X0252827Y0050117D01*
X0253852Y0049692D01*
X0254962Y0049692D01*
X0255987Y0050117D01*
X0256771Y0050901D01*
X0257196Y0051926D01*
X0257196Y0053036D01*
X0256771Y0054061D01*
X0256809Y0053969D02*
X0300988Y0053969D01*
X0300988Y0053370D02*
X0257057Y0053370D01*
X0257196Y0052772D02*
X0300988Y0052772D01*
X0300988Y0052173D02*
X0257196Y0052173D01*
X0257050Y0051575D02*
X0300988Y0051575D01*
X0300988Y0050976D02*
X0256802Y0050976D01*
X0256248Y0050378D02*
X0300988Y0050378D01*
X0300988Y0049779D02*
X0255172Y0049779D01*
X0253641Y0049779D02*
X0235487Y0049779D01*
X0235277Y0049692D02*
X0236302Y0050117D01*
X0237086Y0050901D01*
X0237511Y0051926D01*
X0237511Y0053036D01*
X0237086Y0054061D01*
X0236302Y0054845D01*
X0235277Y0055270D01*
X0234167Y0055270D01*
X0233142Y0054845D01*
X0232357Y0054061D01*
X0231933Y0053036D01*
X0231933Y0051926D01*
X0232357Y0050901D01*
X0233142Y0050117D01*
X0234167Y0049692D01*
X0235277Y0049692D01*
X0233956Y0049779D02*
X0089818Y0049779D01*
X0089607Y0049692D02*
X0090632Y0050117D01*
X0091417Y0050901D01*
X0091842Y0051926D01*
X0091842Y0053036D01*
X0091417Y0054061D01*
X0090632Y0054845D01*
X0089607Y0055270D01*
X0088498Y0055270D01*
X0087473Y0054845D01*
X0086688Y0054061D01*
X0086264Y0053036D01*
X0086264Y0051926D01*
X0086688Y0050901D01*
X0087473Y0050117D01*
X0088498Y0049692D01*
X0089607Y0049692D01*
X0088287Y0049779D02*
X0026723Y0049779D01*
X0026723Y0049181D02*
X0300988Y0049181D01*
X0300988Y0048582D02*
X0026723Y0048582D01*
X0026723Y0047984D02*
X0300988Y0047984D01*
X0300988Y0047385D02*
X0026723Y0047385D01*
X0026723Y0046787D02*
X0300988Y0046787D01*
X0300988Y0046188D02*
X0276747Y0046188D01*
X0277629Y0045823D02*
X0275704Y0046620D01*
X0273621Y0046620D01*
X0271696Y0045823D01*
X0270223Y0044350D01*
X0269426Y0042425D01*
X0269426Y0040341D01*
X0270223Y0038417D01*
X0271696Y0036943D01*
X0273621Y0036146D01*
X0275704Y0036146D01*
X0277629Y0036943D01*
X0279102Y0038417D01*
X0279900Y0040341D01*
X0279900Y0042425D01*
X0279102Y0044350D01*
X0277629Y0045823D01*
X0277862Y0045590D02*
X0300988Y0045590D01*
X0300988Y0044991D02*
X0278461Y0044991D01*
X0279059Y0044393D02*
X0300988Y0044393D01*
X0300988Y0043794D02*
X0279333Y0043794D01*
X0279580Y0043196D02*
X0300988Y0043196D01*
X0300988Y0042597D02*
X0279828Y0042597D01*
X0279900Y0041999D02*
X0300988Y0041999D01*
X0300988Y0041400D02*
X0279900Y0041400D01*
X0279900Y0040802D02*
X0300988Y0040802D01*
X0300988Y0040203D02*
X0279843Y0040203D01*
X0279595Y0039605D02*
X0300988Y0039605D01*
X0300988Y0039006D02*
X0279347Y0039006D01*
X0279094Y0038408D02*
X0300988Y0038408D01*
X0300988Y0037809D02*
X0278495Y0037809D01*
X0277897Y0037211D02*
X0300988Y0037211D01*
X0300988Y0036612D02*
X0276830Y0036612D01*
X0272496Y0036612D02*
X0026723Y0036612D01*
X0026723Y0036014D02*
X0300988Y0036014D01*
X0300988Y0035415D02*
X0026723Y0035415D01*
X0026723Y0034817D02*
X0300988Y0034817D01*
X0300988Y0034218D02*
X0026723Y0034218D01*
X0026723Y0033620D02*
X0187940Y0033620D01*
X0187985Y0033664D02*
X0187200Y0032880D01*
X0186775Y0031855D01*
X0186775Y0030745D01*
X0187200Y0029720D01*
X0187985Y0028936D01*
X0189010Y0028511D01*
X0190119Y0028511D01*
X0191144Y0028936D01*
X0191909Y0029700D01*
X0225094Y0029700D01*
X0225859Y0028936D01*
X0226884Y0028511D01*
X0227993Y0028511D01*
X0229018Y0028936D01*
X0229803Y0029720D01*
X0230227Y0030745D01*
X0230227Y0031855D01*
X0229803Y0032880D01*
X0229018Y0033664D01*
X0227993Y0034089D01*
X0226884Y0034089D01*
X0225859Y0033664D01*
X0225094Y0032900D01*
X0191909Y0032900D01*
X0191144Y0033664D01*
X0190119Y0034089D01*
X0189010Y0034089D01*
X0187985Y0033664D01*
X0187341Y0033021D02*
X0026723Y0033021D01*
X0026723Y0032423D02*
X0187011Y0032423D01*
X0186775Y0031824D02*
X0026723Y0031824D01*
X0026723Y0031226D02*
X0186775Y0031226D01*
X0186824Y0030627D02*
X0026723Y0030627D01*
X0026723Y0030029D02*
X0187072Y0030029D01*
X0187490Y0029430D02*
X0026723Y0029430D01*
X0026723Y0028832D02*
X0188236Y0028832D01*
X0190893Y0028832D02*
X0226110Y0028832D01*
X0225364Y0029430D02*
X0191639Y0029430D01*
X0189564Y0031300D02*
X0227438Y0031300D01*
X0229992Y0032423D02*
X0300988Y0032423D01*
X0300988Y0033021D02*
X0229661Y0033021D01*
X0229063Y0033620D02*
X0300988Y0033620D01*
X0300988Y0031824D02*
X0230227Y0031824D01*
X0230227Y0031226D02*
X0300988Y0031226D01*
X0300988Y0030627D02*
X0230178Y0030627D01*
X0229930Y0030029D02*
X0300988Y0030029D01*
X0300988Y0029430D02*
X0229513Y0029430D01*
X0228767Y0028832D02*
X0300988Y0028832D01*
X0300988Y0028233D02*
X0026723Y0028233D01*
X0026723Y0027634D02*
X0300988Y0027634D01*
X0300988Y0027036D02*
X0026723Y0027036D01*
X0026723Y0026437D02*
X0273271Y0026437D01*
X0273436Y0026491D02*
X0272652Y0026236D01*
X0271918Y0025862D01*
X0271251Y0025378D01*
X0270668Y0024795D01*
X0270184Y0024128D01*
X0269809Y0023393D01*
X0269555Y0022609D01*
X0269426Y0021795D01*
X0269426Y0021683D01*
X0274363Y0021683D01*
X0274363Y0026620D01*
X0274251Y0026620D01*
X0273436Y0026491D01*
X0274363Y0026437D02*
X0274963Y0026437D01*
X0274963Y0026620D02*
X0274963Y0021683D01*
X0279900Y0021683D01*
X0279900Y0021795D01*
X0279771Y0022609D01*
X0279516Y0023393D01*
X0279142Y0024128D01*
X0278657Y0024795D01*
X0278074Y0025378D01*
X0277408Y0025862D01*
X0276673Y0026236D01*
X0275889Y0026491D01*
X0275075Y0026620D01*
X0274963Y0026620D01*
X0274963Y0025839D02*
X0274363Y0025839D01*
X0274363Y0025240D02*
X0274963Y0025240D01*
X0274963Y0024642D02*
X0274363Y0024642D01*
X0274363Y0024043D02*
X0274963Y0024043D01*
X0274963Y0023445D02*
X0274363Y0023445D01*
X0274363Y0022846D02*
X0274963Y0022846D01*
X0274963Y0022248D02*
X0274363Y0022248D01*
X0274363Y0021683D02*
X0274963Y0021683D01*
X0274963Y0021083D01*
X0279900Y0021083D01*
X0279900Y0020971D01*
X0279771Y0020157D01*
X0279516Y0019373D01*
X0279142Y0018638D01*
X0278657Y0017971D01*
X0278074Y0017388D01*
X0277408Y0016904D01*
X0276673Y0016530D01*
X0275889Y0016275D01*
X0275075Y0016146D01*
X0274963Y0016146D01*
X0274963Y0021083D01*
X0274363Y0021083D01*
X0274363Y0016146D01*
X0274251Y0016146D01*
X0273436Y0016275D01*
X0272652Y0016530D01*
X0271918Y0016904D01*
X0271251Y0017388D01*
X0270668Y0017971D01*
X0270184Y0018638D01*
X0269809Y0019373D01*
X0269555Y0020157D01*
X0269426Y0020971D01*
X0269426Y0021083D01*
X0274363Y0021083D01*
X0274363Y0021683D01*
X0274363Y0021649D02*
X0062400Y0021649D01*
X0062400Y0021285D02*
X0062400Y0024699D01*
X0062311Y0025030D01*
X0062140Y0025327D01*
X0061898Y0025569D01*
X0061602Y0025740D01*
X0061271Y0025828D01*
X0057856Y0025828D01*
X0057856Y0021285D01*
X0057256Y0021285D01*
X0057256Y0020685D01*
X0052713Y0020685D01*
X0052713Y0017271D01*
X0052802Y0016940D01*
X0052973Y0016644D01*
X0053215Y0016401D01*
X0053511Y0016230D01*
X0053842Y0016142D01*
X0057256Y0016142D01*
X0057256Y0020685D01*
X0057856Y0020685D01*
X0057856Y0016142D01*
X0061271Y0016142D01*
X0061602Y0016230D01*
X0061898Y0016401D01*
X0062140Y0016644D01*
X0062311Y0016940D01*
X0062400Y0017271D01*
X0062400Y0020685D01*
X0057857Y0020685D01*
X0057857Y0021285D01*
X0062400Y0021285D01*
X0062400Y0020452D02*
X0269508Y0020452D01*
X0269426Y0021051D02*
X0057857Y0021051D01*
X0057856Y0021649D02*
X0057256Y0021649D01*
X0057256Y0021285D02*
X0057256Y0025828D01*
X0053842Y0025828D01*
X0053511Y0025740D01*
X0053215Y0025569D01*
X0052973Y0025327D01*
X0052802Y0025030D01*
X0052713Y0024699D01*
X0052713Y0021285D01*
X0057256Y0021285D01*
X0057256Y0021051D02*
X0026723Y0021051D01*
X0026723Y0021649D02*
X0052713Y0021649D01*
X0052713Y0022248D02*
X0026723Y0022248D01*
X0026723Y0022846D02*
X0052713Y0022846D01*
X0052713Y0023445D02*
X0026723Y0023445D01*
X0026723Y0024043D02*
X0052713Y0024043D01*
X0052713Y0024642D02*
X0026723Y0024642D01*
X0026723Y0025240D02*
X0052923Y0025240D01*
X0057256Y0025240D02*
X0057856Y0025240D01*
X0057856Y0024642D02*
X0057256Y0024642D01*
X0057256Y0024043D02*
X0057856Y0024043D01*
X0057856Y0023445D02*
X0057256Y0023445D01*
X0057256Y0022846D02*
X0057856Y0022846D01*
X0057856Y0022248D02*
X0057256Y0022248D01*
X0057256Y0020452D02*
X0057856Y0020452D01*
X0057856Y0019854D02*
X0057256Y0019854D01*
X0057256Y0019255D02*
X0057856Y0019255D01*
X0057856Y0018657D02*
X0057256Y0018657D01*
X0057256Y0018058D02*
X0057856Y0018058D01*
X0057856Y0017460D02*
X0057256Y0017460D01*
X0057256Y0016861D02*
X0057856Y0016861D01*
X0057856Y0016263D02*
X0057256Y0016263D01*
X0053455Y0016263D02*
X0026723Y0016263D01*
X0026723Y0016861D02*
X0052847Y0016861D01*
X0052713Y0017460D02*
X0026723Y0017460D01*
X0026723Y0018058D02*
X0052713Y0018058D01*
X0052713Y0018657D02*
X0026723Y0018657D01*
X0026723Y0019255D02*
X0052713Y0019255D01*
X0052713Y0019854D02*
X0026723Y0019854D01*
X0026723Y0020452D02*
X0052713Y0020452D01*
X0062400Y0019854D02*
X0269653Y0019854D01*
X0269869Y0019255D02*
X0090789Y0019255D01*
X0090632Y0019412D02*
X0089607Y0019837D01*
X0088498Y0019837D01*
X0087473Y0019412D01*
X0086688Y0018628D01*
X0086264Y0017603D01*
X0086264Y0016493D01*
X0086688Y0015468D01*
X0087473Y0014684D01*
X0088498Y0014259D01*
X0089607Y0014259D01*
X0090632Y0014684D01*
X0091417Y0015468D01*
X0091842Y0016493D01*
X0091842Y0017603D01*
X0091417Y0018628D01*
X0090632Y0019412D01*
X0091388Y0018657D02*
X0270174Y0018657D01*
X0270605Y0018058D02*
X0091653Y0018058D01*
X0091842Y0017460D02*
X0271180Y0017460D01*
X0272002Y0016861D02*
X0091842Y0016861D01*
X0091746Y0016263D02*
X0273514Y0016263D01*
X0274363Y0016263D02*
X0274963Y0016263D01*
X0274963Y0016861D02*
X0274363Y0016861D01*
X0274363Y0017460D02*
X0274963Y0017460D01*
X0274963Y0018058D02*
X0274363Y0018058D01*
X0274363Y0018657D02*
X0274963Y0018657D01*
X0274963Y0019255D02*
X0274363Y0019255D01*
X0274363Y0019854D02*
X0274963Y0019854D01*
X0274963Y0020452D02*
X0274363Y0020452D01*
X0274363Y0021051D02*
X0274963Y0021051D01*
X0274963Y0021649D02*
X0300988Y0021649D01*
X0300988Y0021051D02*
X0279900Y0021051D01*
X0279818Y0020452D02*
X0300988Y0020452D01*
X0300988Y0019854D02*
X0279672Y0019854D01*
X0279456Y0019255D02*
X0300988Y0019255D01*
X0300988Y0018657D02*
X0279151Y0018657D01*
X0278720Y0018058D02*
X0300988Y0018058D01*
X0300988Y0017460D02*
X0278146Y0017460D01*
X0277324Y0016861D02*
X0300988Y0016861D01*
X0300988Y0016263D02*
X0275812Y0016263D01*
X0257196Y0013666D02*
X0257196Y0012556D01*
X0256771Y0011531D01*
X0255987Y0010747D01*
X0254962Y0010322D01*
X0253852Y0010322D01*
X0252827Y0010747D01*
X0252042Y0011531D01*
X0251618Y0012556D01*
X0251618Y0013666D01*
X0252042Y0014691D01*
X0252827Y0015475D01*
X0253852Y0015900D01*
X0254962Y0015900D01*
X0255987Y0015475D01*
X0256771Y0014691D01*
X0257196Y0013666D01*
X0257112Y0013869D02*
X0300988Y0013869D01*
X0300988Y0014467D02*
X0256864Y0014467D01*
X0256396Y0015066D02*
X0300988Y0015066D01*
X0300988Y0015664D02*
X0255531Y0015664D01*
X0253283Y0015664D02*
X0091498Y0015664D01*
X0091014Y0015066D02*
X0252417Y0015066D01*
X0251950Y0014467D02*
X0090110Y0014467D01*
X0087995Y0014467D02*
X0026723Y0014467D01*
X0026723Y0013869D02*
X0251702Y0013869D01*
X0251618Y0013270D02*
X0026723Y0013270D01*
X0026723Y0012672D02*
X0251618Y0012672D01*
X0251818Y0012073D02*
X0026723Y0012073D01*
X0026723Y0011475D02*
X0193708Y0011475D01*
X0193772Y0011538D02*
X0192987Y0010754D01*
X0192563Y0009729D01*
X0192563Y0008619D01*
X0192987Y0007594D01*
X0193772Y0006810D01*
X0194797Y0006385D01*
X0195907Y0006385D01*
X0196932Y0006810D01*
X0197716Y0007594D01*
X0198141Y0008619D01*
X0198141Y0009729D01*
X0197716Y0010754D01*
X0196932Y0011538D01*
X0195907Y0011963D01*
X0194797Y0011963D01*
X0193772Y0011538D01*
X0193110Y0010876D02*
X0026723Y0010876D01*
X0026723Y0010278D02*
X0192790Y0010278D01*
X0192563Y0009679D02*
X0026723Y0009679D01*
X0026723Y0009081D02*
X0192563Y0009081D01*
X0192620Y0008482D02*
X0026723Y0008482D01*
X0026723Y0007884D02*
X0192867Y0007884D01*
X0193296Y0007285D02*
X0026723Y0007285D01*
X0026723Y0006687D02*
X0194069Y0006687D01*
X0196635Y0006687D02*
X0300988Y0006687D01*
X0300988Y0007285D02*
X0197407Y0007285D01*
X0197836Y0007884D02*
X0300988Y0007884D01*
X0300988Y0008482D02*
X0198084Y0008482D01*
X0198141Y0009081D02*
X0300988Y0009081D01*
X0300988Y0009679D02*
X0198141Y0009679D01*
X0197913Y0010278D02*
X0300988Y0010278D01*
X0300988Y0010876D02*
X0256116Y0010876D01*
X0256715Y0011475D02*
X0300988Y0011475D01*
X0300988Y0012073D02*
X0256996Y0012073D01*
X0257196Y0012672D02*
X0300988Y0012672D01*
X0300988Y0013270D02*
X0257196Y0013270D01*
X0252099Y0011475D02*
X0196995Y0011475D01*
X0197594Y0010876D02*
X0252698Y0010876D01*
X0269497Y0022248D02*
X0062400Y0022248D01*
X0062400Y0022846D02*
X0269632Y0022846D01*
X0269836Y0023445D02*
X0062400Y0023445D01*
X0062400Y0024043D02*
X0270141Y0024043D01*
X0270557Y0024642D02*
X0062400Y0024642D01*
X0062190Y0025240D02*
X0271114Y0025240D01*
X0271886Y0025839D02*
X0026723Y0025839D01*
X0026723Y0015664D02*
X0086607Y0015664D01*
X0086359Y0016263D02*
X0061658Y0016263D01*
X0062266Y0016861D02*
X0086264Y0016861D01*
X0086264Y0017460D02*
X0062400Y0017460D01*
X0062400Y0018058D02*
X0086452Y0018058D01*
X0086717Y0018657D02*
X0062400Y0018657D01*
X0062400Y0019255D02*
X0087316Y0019255D01*
X0087091Y0015066D02*
X0026723Y0015066D01*
X0026723Y0006088D02*
X0300988Y0006088D01*
X0300988Y0022248D02*
X0279828Y0022248D01*
X0279694Y0022846D02*
X0300988Y0022846D01*
X0300988Y0023445D02*
X0279490Y0023445D01*
X0279185Y0024043D02*
X0300988Y0024043D01*
X0300988Y0024642D02*
X0278768Y0024642D01*
X0278212Y0025240D02*
X0300988Y0025240D01*
X0300988Y0025839D02*
X0277439Y0025839D01*
X0276054Y0026437D02*
X0300988Y0026437D01*
X0271429Y0037211D02*
X0026723Y0037211D01*
X0026723Y0037809D02*
X0270830Y0037809D01*
X0270232Y0038408D02*
X0256089Y0038408D01*
X0255987Y0038306D02*
X0256771Y0039090D01*
X0257196Y0040115D01*
X0257196Y0041225D01*
X0256771Y0042250D01*
X0255987Y0043034D01*
X0254962Y0043459D01*
X0253852Y0043459D01*
X0252827Y0043034D01*
X0252042Y0042250D01*
X0251618Y0041225D01*
X0251618Y0040115D01*
X0252042Y0039090D01*
X0252827Y0038306D01*
X0253852Y0037881D01*
X0254962Y0037881D01*
X0255987Y0038306D01*
X0256687Y0039006D02*
X0269979Y0039006D01*
X0269731Y0039605D02*
X0256984Y0039605D01*
X0257196Y0040203D02*
X0269483Y0040203D01*
X0269426Y0040802D02*
X0257196Y0040802D01*
X0257123Y0041400D02*
X0269426Y0041400D01*
X0269426Y0041999D02*
X0256875Y0041999D01*
X0256424Y0042597D02*
X0269497Y0042597D01*
X0269745Y0043196D02*
X0255597Y0043196D01*
X0253217Y0043196D02*
X0026723Y0043196D01*
X0026723Y0043794D02*
X0269993Y0043794D01*
X0270266Y0044393D02*
X0026723Y0044393D01*
X0026723Y0044991D02*
X0270865Y0044991D01*
X0271463Y0045590D02*
X0026723Y0045590D01*
X0026723Y0046188D02*
X0272579Y0046188D01*
X0252566Y0050378D02*
X0236563Y0050378D01*
X0237117Y0050976D02*
X0252011Y0050976D01*
X0251763Y0051575D02*
X0237365Y0051575D01*
X0237511Y0052173D02*
X0251618Y0052173D01*
X0251618Y0052772D02*
X0237511Y0052772D01*
X0237372Y0053370D02*
X0251757Y0053370D01*
X0252004Y0053969D02*
X0237124Y0053969D01*
X0236580Y0054568D02*
X0252549Y0054568D01*
X0253601Y0055166D02*
X0235528Y0055166D01*
X0233916Y0055166D02*
X0089859Y0055166D01*
X0090910Y0054568D02*
X0232864Y0054568D01*
X0232319Y0053969D02*
X0091455Y0053969D01*
X0091703Y0053370D02*
X0232071Y0053370D01*
X0231933Y0052772D02*
X0091842Y0052772D01*
X0091842Y0052173D02*
X0231933Y0052173D01*
X0232078Y0051575D02*
X0091696Y0051575D01*
X0091448Y0050976D02*
X0232326Y0050976D01*
X0232881Y0050378D02*
X0090894Y0050378D01*
X0087212Y0050378D02*
X0026723Y0050378D01*
X0026723Y0050976D02*
X0086657Y0050976D01*
X0086409Y0051575D02*
X0026723Y0051575D01*
X0026723Y0052173D02*
X0086264Y0052173D01*
X0086264Y0052772D02*
X0026723Y0052772D01*
X0026723Y0053370D02*
X0086402Y0053370D01*
X0086650Y0053969D02*
X0026723Y0053969D01*
X0026723Y0054568D02*
X0087195Y0054568D01*
X0088247Y0055166D02*
X0026723Y0055166D01*
X0026723Y0055765D02*
X0053222Y0055765D01*
X0052713Y0056363D02*
X0026723Y0056363D01*
X0026723Y0056962D02*
X0052713Y0056962D01*
X0052713Y0057560D02*
X0026723Y0057560D01*
X0026723Y0058159D02*
X0052713Y0058159D01*
X0052713Y0058757D02*
X0026723Y0058757D01*
X0026723Y0059356D02*
X0052713Y0059356D01*
X0052713Y0059954D02*
X0026723Y0059954D01*
X0026723Y0060553D02*
X0052713Y0060553D01*
X0052713Y0061151D02*
X0026723Y0061151D01*
X0026723Y0061750D02*
X0052713Y0061750D01*
X0052713Y0062348D02*
X0026723Y0062348D01*
X0026723Y0062947D02*
X0052713Y0062947D01*
X0052713Y0063545D02*
X0026723Y0063545D01*
X0026723Y0064144D02*
X0052713Y0064144D01*
X0053018Y0064742D02*
X0026723Y0064742D01*
X0026723Y0042597D02*
X0252390Y0042597D01*
X0251938Y0041999D02*
X0026723Y0041999D01*
X0026723Y0041400D02*
X0251691Y0041400D01*
X0251618Y0040802D02*
X0026723Y0040802D01*
X0026723Y0040203D02*
X0251618Y0040203D01*
X0251829Y0039605D02*
X0026723Y0039605D01*
X0026723Y0039006D02*
X0252127Y0039006D01*
X0252725Y0038408D02*
X0026723Y0038408D01*
X0182438Y0046300D02*
X0193501Y0046300D01*
X0191189Y0033620D02*
X0225814Y0033620D01*
X0225215Y0033021D02*
X0191787Y0033021D01*
X0255213Y0055166D02*
X0300988Y0055166D01*
X0300988Y0054568D02*
X0256265Y0054568D01*
M02*
